inDegrees=yes
name=ik_lifting_orientations
DataType=double
version=3
OpenSimVersion=4.5-2024-01-10-34fd6af
endheader
time	pelvis_tilt	pelvis_list	pelvis_rotation	pelvis_tx	pelvis_ty	pelvis_tz	hip_flexion_r	hip_adduction_r	hip_rotation_r	knee_angle_r	knee_angle_r_beta	ankle_angle_r	subtalar_angle_r	mtp_angle_r	hip_flexion_l	hip_adduction_l	hip_rotation_l	knee_angle_l	knee_angle_l_beta	ankle_angle_l	subtalar_angle_l	mtp_angle_l	lumbar_extension	lumbar_bending	lumbar_rotation	arm_flex_r	arm_add_r	arm_rot_r	elbow_flex_r	pro_sup_r	wrist_flex_r	wrist_dev_r	arm_flex_l	arm_add_l	arm_rot_l	elbow_flex_l	pro_sup_l	wrist_flex_l	wrist_dev_l
1.67	-0.004769921345965768	6.40135191065338e-05	2.580091437317223	0	0.9399999999999999	0	44.88413126490738	-10.00013317577654	0	60.0792248144032	1.048580285057215	-5.000007510686441	0	0	44.88413126490738	-10.00013317577654	0	60.0792248144032	1.048580285057215	-5.000007510686441	0	0	-0.004765372529360474	0.003240851301319451	-0.004973743859563963	1.288326805500361	-7.084245928372891	-9.038727432746127	89.2617074278987	44.99989954812364	0	0	0	-14.25564880180134	0	75.08130911572586	44.99989954812364	0	0
1.68	-0.001208792097833892	-0.001735136934399552	2.581301097010085	0	0.9399999999999999	0	44.88432833513149	-10.00013244056448	0	60.07911877125459	1.048578434255123	-5.000007457149174	0	0	44.88432833513149	-10.00013244056448	0	60.07911877125459	1.048578434255123	-5.000007457149174	0	0	-0.003497173107571319	0.002404088933344144	-0.002671787249278495	1.283951889651602	-7.086810433313762	-9.035056087244781	89.25483414740641	44.99989999725877	0	0	0	-14.25630606904082	0	75.08117112470116	44.99989999725877	0	0
1.69	-0.005273306223256559	-0.001320096098374082	2.577321109011192	0	0.9399999999999999	0	44.88444371008525	-10.0001321012752	0	60.07905561648651	1.048577331996481	-5.00000743515446	0	0	44.88444371008525	-10.0001321012752	0	60.07905561648651	1.048577331996481	-5.00000743515446	0	0	-0.004016766053724468	0.003658882351801917	-0.00569412354398673	1.288053750426102	-7.084957292892356	-9.039093389607913	89.2599671729797	44.99990022050777	0	0	0	-14.25670719395074	0	75.0810903376633	44.99990022050777	0	0
1.7	-0.001276764799918304	-0.004007622361430369	2.578088976521787	0	0.9399999999999999	0	44.88461003876273	-10.00013149567853	0	60.07896591879932	1.048575766476508	-5.000007391467288	0	0	44.88461003876273	-10.00013149567853	0	60.07896591879932	1.048575766476508	-5.000007391467288	0	0	-0.004050004748739216	0.000480100074930512	-0.005316706825440228	1.281584376189398	-7.088077212267725	-9.037983956086107	89.25561772318417	44.99990059297779	0	0	0	-14.25726480444259	0	75.08097387224221	44.99990059297779	0	0
1.71	-0.004690365907919328	-0.0001813061198631173	2.579671661638181	0	0.9399999999999999	0	44.88472975758635	-10.00013114204179	0	60.07890040252354	1.048574623001782	-5.000007368456493	0	0	44.88472975758635	-10.00013114204179	0	60.07890040252354	1.048574623001782	-5.000007368456493	0	0	-0.003696019495216042	0.003827141563311938	-0.005117137914563723	1.28709295445611	-7.084500198271266	-9.038950685389489	89.26097654452897	44.99990082523299	0	0	0	-14.25768088880228	0	75.0808900435711	44.99990082523299	0	0
1.72	-0.001499383821400798	-0.001711942095522364	2.580775548105084	0	0.9399999999999999	0	44.88490295832123	-10.0001305067521	0	60.07880705188276	1.048572993725742	-5.000007322471405	0	0	44.88490295832123	-10.0001305067521	0	60.07880705188276	1.048572993725742	-5.000007322471405	0	0	-0.003380727810466251	0.00266567181842065	-0.002870285418154483	1.282262352309373	-7.086627809622101	-9.035884438068297	89.25570798392089	44.99990121508402	0	0	0	-14.2582607758733	0	75.08076876625232	44.99990121508402	0	0
1.73	-0.004493479790412917	-0.001602684924911642	2.577380476473184	0	0.9399999999999999	0	44.88502276987465	-10.00013015125622	0	60.07874146877533	1.048571849084583	-5.000007299231644	0	0	44.88502276987465	-10.00013015125622	0	60.07874146877533	1.048571849084583	-5.000007299231644	0	0	-0.003249099272405079	0.003523463953599286	-0.006001237183385762	1.287025861985463	-7.085566394136554	-9.039218914540266	89.25923153514901	44.99990144805207	0	0	0	-14.25867722776959	0	75.08068487265096	44.99990144805207	0	0
1.74	-0.0007924093677507132	-0.004392100645272092	2.578481303437847	0	0.9399999999999999	0	44.88516101033436	-10.0001296544729	0	60.07866681780962	1.048570546179442	-5.000007263544489	0	0	44.88516101033436	-10.0001296544729	0	60.07866681780962	1.048570546179442	-5.000007263544489	0	0	-0.003407440494000143	-0.0001717625135980621	-0.004819070999907796	1.280701627523388	-7.088388253792552	-9.038113006153603	89.25665295085608	44.99990175461799	0	0	0	-14.25914214266017	0	75.08058807494648	44.99990175461799	0	0
1.75	-0.004790131978722716	-0.0001177554935497474	2.579291881568654	0	0.9399999999999999	0	44.88528329287291	-10.00012929354926	0	60.07859986480261	1.048569377629026	-5.000007240015389	0	0	44.88528329287291	-10.00012929354926	0	60.07859986480261	1.048569377629026	-5.000007240015389	0	0	-0.00333573161595708	0.003368653852603787	-0.005168578134857459	1.286259561308444	-7.084707825494989	-9.0392678680573	89.26133055997362	44.99990199154257	0	0	0	-14.25956754962165	0	75.0805024511281	44.99990199154257	0	0
1.76	-0.002061973135273986	-0.00169449479357198	2.579947063712123	0	0.9399999999999999	0	44.88545823675705	-10.0001286551253	0	60.07850551429271	1.048567730901977	-5.000007193862749	0	0	44.88545823675705	-10.0001286551253	0	60.07850551429271	1.048567730901977	-5.000007193862749	0	0	-0.003408541811218533	0.002493291072320887	-0.003657971083980931	1.281908587482327	-7.086703155159729	-9.036404831852222	89.25550898562332	44.99990238377285	0	0	0	-14.26015410091426	0	75.08037995323184	44.99990238377285	0	0
1.77	-0.00290870410254026	-0.00186157884922097	2.577987196180079	0	0.9399999999999999	0	44.88558476029985	-10.00012825604662	0	60.07843649685426	1.048566526320435	-5.000007166788247	0	0	44.88558476029985	-10.00012825604662	0	60.07843649685426	1.048566526320435	-5.000007166788247	0	0	-0.001690303011908123	0.002834456669090444	-0.00638081362835407	1.286921008170142	-7.087387676439517	-9.037293440790995	89.25425208016418	44.99990263976695	0	0	0	-14.26059025243333	0	75.08029135982248	44.99990263976695	0	0
1.78	-0.002835882887129233	-0.001445830543712994	2.577889834106213	0	0.9399999999999999	0	44.8856839352354	-10.00012792774473	0	60.07838261467637	1.048565585899022	-5.000007143993694	0	0	44.8856839352354	-10.00012792774473	0	60.07838261467637	1.048565585899022	-5.000007143993694	0	0	-0.001611191312603556	0.003185675893273878	-0.006484714290700263	1.287076587532359	-7.088096602972236	-9.035659202257682	89.2507171614383	44.99990284723174	0	0	0	-14.26092918180824	0	75.08022191626917	44.99990284723174	0	0
1.79	-0.00343939835400605	-0.001372054656113667	2.579079569520516	0	0.9399999999999999	0	44.88574891136186	-10.0001277453691	0	60.07834686986536	1.04856496203438	-5.000007132326379	0	0	44.88574891136186	-10.0001277453691	0	60.07834686986536	1.04856496203438	-5.000007132326379	0	0	-0.00228980239200823	0.003288284140737329	-0.006042221150791412	1.28669691355407	-7.087305308934914	-9.03630245948831	89.25292004476539	44.99990296861793	0	0	0	-14.2611576889411	0	75.08017641913499	44.99990296861793	0	0
1.8	-0.004236300399218991	-0.0007945267390955287	2.578308895734851	0	0.9399999999999999	0	44.88584962611448	-10.00012743613988	0	60.07829192483421	1.048564003062679	-5.000007111627324	0	0	44.88584962611448	-10.00012743613988	0	60.07829192483421	1.048564003062679	-5.000007111627324	0	0	-0.002122314334257404	0.00410586277991792	-0.006658313823346494	1.288951989777682	-7.087032339075003	-9.036000572590767	89.25227458302031	44.99990316868771	0	0	0	-14.26150623728319	0	75.08010589736649	44.99990316868771	0	0
1.81	-0.003986766098293995	-0.0007253933898535278	2.578345086272623	0	0.9399999999999999	0	44.88594457740044	-10.0001271385085	0	60.07824013041334	1.0485630990795	-5.000007091482034	0	0	44.88594457740044	-10.0001271385085	0	60.07824013041334	1.0485630990795	-5.000007091482034	0	0	-0.002141304510423344	0.004371590596376486	-0.00667829269637489	1.289193145521393	-7.0872535838643	-9.035274098896311	89.25084008033744	44.99990335993689	0	0	0	-14.2618339361198	0	75.08003941125529	44.99990335993689	0	0
1.82	-0.003896167760550295	-0.00120368268862963	2.578830072699803	0	0.9399999999999999	0	44.88602329210342	-10.00012690728399	0	60.07819698159779	1.048562345990601	-5.000007076327776	0	0	44.88602329210342	-10.00012690728399	0	60.07819698159779	1.048562345990601	-5.000007076327776	0	0	-0.002462098429088252	0.00431176073083662	-0.006454140073831788	1.289001844355255	-7.087029504847685	-9.035476419113705	89.25170851522967	44.99990351157911	0	0	0	-14.2621086831066	0	75.07998429419749	44.99990351157911	0	0
1.83	-0.003803393126293079	-0.001033366508000867	2.578666841665827	0	0.9399999999999999	0	44.88611218345932	-10.00012663271421	0	60.07814844082732	1.048561498794334	-5.00000705786034	0	0	44.88611218345932	-10.00012663271421	0	60.07814844082732	1.048561498794334	-5.00000705786034	0	0	-0.002454149388749647	0.00452802187232878	-0.006588648552595939	1.289336813033373	-7.087150860837594	-9.035134759961256	89.25091207526718	44.99990368877064	0	0	0	-14.26241634137878	0	75.07992205132423	44.99990368877064	0	0
1.84	-0.003703686075298051	-0.001323135990348957	2.578871411684932	0	0.9399999999999999	0	44.88619108659592	-10.00012639796562	0	60.07810522267219	1.048560744495231	-5.00000704235723	0	0	44.88619108659592	-10.00012639796562	0	60.07810522267219	1.048560744495231	-5.00000704235723	0	0	-0.00265794894079601	0.004462149237287713	-0.006480408340010298	1.289138346687451	-7.087081340481634	-9.035257741835734	89.2513541023426	44.99990384204322	0	0	0	-14.26269126390324	0	75.07986680232459	44.99990384204322	0	0
1.85	-0.003647550131722196	-0.001264318621933952	2.578804246654156	0	0.9399999999999999	0	44.88627489822071	-10.0001261433627	0	60.07805939076565	1.048559944577559	-5.000007025359472	0	0	44.88627489822071	-10.0001261433627	0	60.07805939076565	1.048559944577559	-5.000007025359472	0	0	-0.002695437527047932	0.004560858333490206	-0.006541766878061951	1.289280837874002	-7.087127409617716	-9.035144896330202	89.25108906557988	44.9999040071656	0	0	0	-14.26298227622555	0	75.07980811634141	44.9999040071656	0	0
1.86	-0.00357993868475216	-0.001365954717799104	2.578866732903381	0	0.9399999999999999	0	44.88635518314886	-10.00012590253728	0	60.07801543934784	1.048559177480607	-5.000007009376862	0	0	44.88635518314886	-10.00012590253728	0	60.07801543934784	1.048559177480607	-5.000007009376862	0	0	-0.0027955594021532	0.004549603722769758	-0.006509633139797332	1.289205155000677	-7.087123305714458	-9.035174927775117	89.2512091434573	44.99990416395679	0	0	0	-14.2632617005531	0	75.07975189979457	44.99990416395679	0	0
1.87	-0.02390002876221429	0.0009902052133618595	2.570766213349849	0	0.9399999999999999	0	44.88638578457319	-10.00012578412159	0	60.0779989748456	1.048558890120834	-5.000007000595978	0	0	44.88638578457319	-10.00012578412159	0	60.0779989748456	1.048558890120834	-5.000007000595978	0	0	0.04067088531886342	0.0005343091204338358	0.01345621640126562	1.273658787930041	-7.184694893862719	-8.890107025981679	88.10576700814283	44.99990423544582	0	0	0	-14.26336328889349	0	75.07973047229834	44.99990423544582	0	0
